<svg width="1440" height="1024" viewBox="0 0 1440 1024" fill="none" xmlns="http://www.w3.org/2000/svg">
<rect width="1440" height="1024" fill="#023047"/>
<path d="M430 1058C435.5 895.999 648.977 -64.9425 1470.5 -27L1572.5 1058H-52.4999C-52.4999 1058 424.5 1220 430 1058Z" fill="#A9E4FF"/>
<g clip-path="url(#clip0)">
<path d="M1191.65 572.58L1209.28 575.51L1213.2 576.161C1213.2 576.161 1214.17 577.317 1213.19 578.147C1216.06 595.519 1221.83 622.317 1243.3 643.774C1264.78 665.231 1283.36 677.261 1301.97 681.347C1315.68 683.625 1326.48 680.45 1334.35 675.793C1333.36 676.624 1333.35 678.61 1332.37 679.44C1321.49 702.478 1307.63 733.966 1326.09 773.804C1332.89 787.854 1342.63 803.386 1352.36 818.917C1371.84 849.98 1393.26 885.341 1393.14 913.148C1392.97 952.874 1378.14 983.206 1347.67 1001C1318.18 1017.97 1275.02 1024.71 1227.02 1015.74C1178.03 1007.6 1135.96 987.696 1106.66 960.964C1076.39 933.077 1061.83 897.862 1062 858.137C1062.12 830.329 1074.97 805.63 1104.5 776.747C1158.65 723.131 1138.28 671.05 1125.68 638.147C1115.01 611.528 1111.12 602.932 1127.86 586.829C1141.66 569.245 1162.25 567.698 1191.65 572.58V572.58ZM1190.8 541.63C1159.45 536.422 1126.12 534.861 1100.51 562.41C1039.46 623.824 1156.9 675.135 1079.11 752.652C1050.56 780.706 1029.84 812.047 1029.66 853.759C1028.23 959.861 1116.17 1030.12 1224.92 1047.2C1334.65 1065.43 1423.06 1024.46 1422.53 918.031C1422.76 864.402 1373.99 806.608 1352.6 763.302C1326.36 708.258 1401.03 670.97 1356.14 623.758C1352.23 619.135 1348.32 616.498 1345.38 617.002C1329.7 614.398 1326.59 654.628 1301.12 650.397C1291.32 648.769 1279.59 640.857 1262.02 624.024C1236.64 597.943 1248.6 552.226 1227.04 548.646C1215.29 546.692 1203.53 544.739 1190.8 541.63V541.63Z" fill="#8ECAE6"/>
<path d="M1358.78 819.464C1348.92 803.704 1340.04 789.117 1332.18 773.681C1313.52 733.236 1327.73 701.176 1338.88 677.716C1339.88 676.869 1339.9 674.849 1340.9 674.002C1332.88 678.762 1321.88 682.026 1307.93 679.754C1289.99 676.833 1271.12 664.661 1248.34 641.743C1226.55 619.996 1222.76 593.093 1217.9 575.115C1217.9 575.115 1216.91 573.943 1217.92 573.096L1213.93 572.446L1195.99 569.525C1166.09 564.656 1146.13 565.45 1127.03 583.572C1110.95 599.151 1113.87 608.726 1124.65 635.756C1138.36 670.341 1158.93 721.208 1102.64 776.746C1072.48 806.21 1059.32 831.364 1059.11 859.638C1058.81 900.029 1073.51 935.786 1104.23 964.042C1133.97 991.126 1177.72 1012.4 1226.56 1019.35C1276.4 1027.46 1319.35 1021.31 1349.42 1003.97C1380.49 985.771 1395.69 954.883 1395.99 914.492C1399.2 885.695 1377.51 849.812 1358.78 819.464Z" fill="white"/>
<path d="M1177.53 739.317L1177.72 690.154L1274.72 706.247L1274.52 755.398L1177.53 739.317Z" fill="#3E4347"/>
<path d="M1177.31 834.639L1177.53 785.471L1274.52 801.592L1274.3 850.76L1177.31 834.639Z" fill="#3E4347"/>
<path d="M1188.46 907.33L1188.58 879.244L1264.79 891.915L1264.66 920.009L1188.46 907.33Z" fill="#3E4347"/>
<path d="M1270.64 670.18L1182.47 655.532L1198.28 165.217L1259.02 175.308L1270.64 670.18Z" fill="#3E4347"/>
<path d="M1368.64 910.073C1381.14 899.525 1381.23 879.071 1368.84 864.389C1356.45 849.706 1336.27 846.354 1323.77 856.902C1311.27 867.45 1311.19 887.903 1323.58 902.586C1335.97 917.269 1356.15 920.621 1368.64 910.073Z" fill="#3E4347"/>
<path d="M1336.96 982.329C1346.75 974.074 1346.81 958.067 1337.12 946.576C1327.42 935.085 1311.63 932.462 1301.85 940.717C1292.06 948.972 1292 964.979 1301.69 976.469C1311.39 987.96 1327.18 990.584 1336.96 982.329Z" fill="#3E4347"/>
<path d="M1304.84 235.594C1304.79 249.497 1307.69 258.924 1318.46 261.707C1330.22 263.66 1332.22 254.055 1332.28 240.151C1332.34 226.247 1329.43 216.82 1318.66 214.037C1308.87 212.409 1305.88 222.846 1304.84 235.594Z" fill="#3E4347"/>
<path d="M1283.72 239.111L1283.77 225.076L1314.26 230.141L1314.2 244.184L1283.72 239.111Z" fill="#3E4347"/>
<path d="M1306.12 167.23C1306.06 181.134 1308.96 190.56 1319.73 193.344C1331.49 195.297 1333.49 185.691 1333.55 171.787C1333.61 157.883 1330.71 148.457 1319.93 145.674C1309.15 144.876 1306.17 155.313 1306.12 167.23" fill="#3E4347"/>
<path d="M1284.57 170.052L1284.64 156L1315.11 161.062L1315.05 175.105L1284.57 170.052Z" fill="#3E4347"/>
<path d="M1306.4 99.697C1306.34 113.601 1309.25 123.027 1320.02 125.811C1331.77 127.764 1333.78 118.158 1333.84 104.254C1333.89 90.3503 1330.99 80.9238 1320.22 78.1404C1308.46 76.1873 1306.46 85.7932 1306.4 99.697Z" fill="#3E4347"/>
<path d="M1284.04 102.144L1284.1 88.1009L1314.59 93.1658L1314.52 107.217L1284.04 102.144Z" fill="#3E4347"/>
<path d="M1152.01 210.203C1151.95 224.107 1148.97 232.557 1138.19 231.76C1126.44 229.807 1124.52 219.55 1124.58 205.646C1124.64 191.742 1127.61 183.292 1138.4 184.089C1148.19 185.717 1151.09 197.13 1152.01 210.203Z" fill="#3E4347"/>
<path d="M1142.61 215.659L1142.69 201.619L1173.17 206.712L1173.09 220.752L1142.61 215.659Z" fill="#3E4347"/>
<path d="M1151.32 141.515C1151.26 155.418 1148.28 163.868 1137.5 163.071C1125.75 161.118 1123.83 150.861 1123.89 136.957C1123.95 123.054 1126.93 114.604 1137.71 115.401C1148.48 118.184 1151.37 129.597 1151.32 141.515Z" fill="#3E4347"/>
<path d="M1143.52 146.578L1143.58 132.536L1174.05 137.609L1173.99 151.652L1143.52 146.578Z" fill="#3E4347"/>
<path d="M1151.61 73.9815C1151.55 87.8854 1149.55 97.4911 1137.79 95.5381C1126.03 93.585 1124.12 83.3282 1124.18 69.4243C1124.24 55.5205 1126.24 45.9147 1137.99 47.8678C1149.75 49.8209 1151.67 60.0777 1151.61 73.9815Z" fill="#3E4347"/>
<path d="M1142.95 78.6954L1143.02 64.6442L1173.49 69.7058L1173.43 83.7488L1142.95 78.6954Z" fill="#3E4347"/>
<path d="M1294.3 179.181C1293.84 286.439 1292.74 315.077 1228.08 304.335C1163.42 293.593 1162.56 264.63 1163.02 157.371C1163.63 14.3604 1142.16 -9.08286 1229.36 4.40929C1316.55 19.8877 1294.91 36.1697 1294.3 179.181" fill="#3E4347"/>
<path d="M1206.42 95.0135C1213.49 89.0516 1213.54 77.491 1206.53 69.192C1199.53 60.8931 1188.12 58.9985 1181.06 64.9604C1173.99 70.9222 1173.95 82.4829 1180.95 90.7818C1187.95 99.0807 1199.36 100.975 1206.42 95.0135Z" fill="#8A959B"/>
<path d="M1206.13 164.533C1213.19 158.571 1213.24 147.01 1206.24 138.711C1199.23 130.412 1187.83 128.518 1180.76 134.48C1173.7 140.441 1173.65 152.002 1180.65 160.301C1187.66 168.6 1199.06 170.495 1206.13 164.533Z" fill="#8A959B"/>
<path d="M1205.84 232.066C1212.9 226.104 1212.95 214.543 1205.95 206.244C1198.94 197.945 1187.54 196.051 1180.48 202.013C1173.41 207.975 1173.36 219.535 1180.37 227.834C1187.37 236.133 1198.77 238.028 1205.84 232.066Z" fill="#8A959B"/>
<path d="M1276.96 106.732C1284.03 100.77 1284.07 89.2097 1277.07 80.9107C1270.07 72.6118 1258.66 70.7172 1251.6 76.6791C1244.53 82.6409 1244.48 94.2016 1251.49 102.501C1258.49 110.799 1269.9 112.694 1276.96 106.732Z" fill="#8A959B"/>
<path d="M1282.6 163.324C1282.56 173.255 1274.69 179.898 1264.89 178.271C1255.09 176.643 1247.29 167.396 1247.33 157.465C1247.38 147.534 1255.25 140.89 1265.04 142.518C1274.84 144.146 1282.65 153.393 1282.6 163.324Z" fill="#8A959B"/>
<path d="M1276.38 243.784C1283.44 237.823 1283.49 226.262 1276.49 217.963C1269.48 209.664 1258.08 207.77 1251.02 213.731C1243.95 219.693 1243.9 231.254 1250.91 239.553C1257.91 247.852 1269.31 249.746 1276.38 243.784Z" fill="#8A959B"/>
</g>
<path d="M249.143 488.991C340.785 488.991 535.003 244.557 488.43 127.272C441.856 10.1103 72.2738 9.04272 39.8923 127.272C7.51068 244.557 157.5 488.991 249.143 488.991Z" fill="#8ECAE6"/>
<path d="M115.675 169.525C113.075 169.525 110.7 168.775 108.55 167.275C106.45 165.825 104.775 163.725 103.525 160.975C102.275 158.175 101.65 154.825 101.65 150.925C101.65 147.075 102.25 143.175 103.45 139.225C104.65 135.275 106.275 131.5 108.325 127.9C110.425 124.3 112.8 121.1 115.45 118.3C118.1 115.45 120.875 113.2 123.775 111.55C126.725 109.9 129.625 109.075 132.475 109.075C135.325 109.075 137.325 109.95 138.475 111.7C139.675 113.4 140.275 115.35 140.275 117.55C140.275 119.3 139.975 121.025 139.375 122.725C138.775 124.375 137.975 125.75 136.975 126.85C135.975 127.95 134.875 128.5 133.675 128.5C133.275 128.5 132.85 128.375 132.4 128.125C132 127.875 131.65 127.425 131.35 126.775C132.05 126.275 132.85 125.375 133.75 124.075C134.7 122.775 135.5 121.325 136.15 119.725C136.85 118.125 137.2 116.65 137.2 115.3C137.2 114.15 136.85 113.2 136.15 112.45C135.5 111.7 134.35 111.325 132.7 111.325C130.55 111.325 128.3 112.2 125.95 113.95C123.65 115.7 121.4 118.05 119.2 121C117.05 123.9 115.1 127.15 113.35 130.75C111.6 134.35 110.2 138.025 109.15 141.775C108.15 145.525 107.65 149.075 107.65 152.425C107.65 156.975 108.6 160.525 110.5 163.075C112.4 165.675 114.8 166.975 117.7 166.975C119.65 166.975 121.5 166.25 123.25 164.8C125 163.4 126.55 161.575 127.9 159.325C129.25 157.025 130.325 154.55 131.125 151.9C131.975 149.25 132.5 146.7 132.7 144.25C130.85 143.85 129.35 143.6 128.2 143.5C127.05 143.35 125.975 143.275 124.975 143.275C124.325 143.275 123.625 143.3 122.875 143.35C122.175 143.35 121.35 143.35 120.4 143.35C120.75 141.9 121.35 140.9 122.2 140.35C123.1 139.75 124.2 139.45 125.5 139.45C126.9 139.45 128.35 139.7 129.85 140.2C131.4 140.65 132.9 141.15 134.35 141.7C135.8 142.25 137.075 142.675 138.175 142.975L137.65 145.375C136.4 148.675 135.425 151.475 134.725 153.775C134.075 156.025 133.625 157.95 133.375 159.55C133.175 161.1 133.075 162.475 133.075 163.675C133.075 164.675 133.1 165.65 133.15 166.6C133.25 167.55 133.325 168.525 133.375 169.525C132.125 169.025 131.125 168.325 130.375 167.425C129.675 166.575 129.325 165.475 129.325 164.125C129.325 163.025 129.5 161.875 129.85 160.675C128.05 163.175 125.975 165.275 123.625 166.975C121.275 168.675 118.625 169.525 115.675 169.525ZM147.153 165.25C145.453 165.25 144.078 164.5 143.028 163C142.028 161.45 141.528 159.675 141.528 157.675C141.528 156.225 141.753 154.55 142.203 152.65C142.703 150.75 143.303 148.875 144.003 147.025C144.703 145.175 145.428 143.65 146.178 142.45C146.928 141.25 147.578 140.65 148.128 140.65C148.378 140.65 148.803 140.8 149.403 141.1C150.003 141.35 150.503 141.7 150.903 142.15C150.353 143 149.678 144.3 148.878 146.05C148.078 147.8 147.378 149.675 146.778 151.675C146.178 153.675 145.878 155.525 145.878 157.225C145.878 157.625 145.928 158.25 146.028 159.1C146.128 159.9 146.378 160.625 146.778 161.275C147.178 161.925 147.778 162.25 148.578 162.25C149.528 162.25 150.503 161.775 151.503 160.825C152.503 159.825 153.503 158.55 154.503 157C155.553 155.45 156.553 153.775 157.503 151.975C158.453 150.175 159.328 148.45 160.128 146.8C160.978 145.15 161.678 143.775 162.228 142.675C162.528 142.725 162.953 142.825 163.503 142.975C164.103 143.125 164.628 143.325 165.078 143.575C165.578 143.825 165.828 144.175 165.828 144.625C165.828 144.825 165.578 145.5 165.078 146.65C164.578 147.75 163.978 149.125 163.278 150.775C162.628 152.375 162.053 154 161.553 155.65C161.053 157.3 160.803 158.75 160.803 160C160.803 160.9 160.978 161.625 161.328 162.175C161.728 162.725 162.378 163 163.278 163C164.328 163 165.603 162.525 167.103 161.575C168.603 160.625 170.128 159.25 171.678 157.45C173.228 155.6 174.603 153.4 175.803 150.85L176.778 151.525C175.728 154.225 174.353 156.625 172.653 158.725C170.953 160.775 169.153 162.375 167.253 163.525C165.353 164.675 163.503 165.25 161.703 165.25C159.703 165.25 158.328 164.7 157.578 163.6C156.828 162.55 156.453 161.25 156.453 159.7C156.453 159.1 156.503 158.5 156.603 157.9C156.703 157.25 156.828 156.6 156.978 155.95C155.578 158.4 154.053 160.575 152.403 162.475C150.803 164.325 149.053 165.25 147.153 165.25ZM188.814 130.6C188.014 130.6 187.289 130.4 186.639 130C186.039 129.6 185.739 128.975 185.739 128.125C185.739 127.075 186.339 126.175 187.539 125.425C188.789 124.625 190.014 124.225 191.214 124.225C191.964 124.225 192.564 124.4 193.014 124.75C193.464 125.1 193.689 125.7 193.689 126.55C193.689 127.5 193.164 128.425 192.114 129.325C191.114 130.175 190.014 130.6 188.814 130.6ZM179.814 164.95C177.864 164.95 176.414 164.325 175.464 163.075C174.514 161.875 174.039 160.4 174.039 158.65C174.039 157.5 174.239 156.05 174.639 154.3C175.089 152.55 175.664 150.725 176.364 148.825C177.064 146.875 177.864 145.05 178.764 143.35C179.714 141.65 180.714 140.275 181.764 139.225C182.814 138.125 183.839 137.575 184.839 137.575C185.289 137.575 185.664 137.725 185.964 138.025C186.314 138.275 186.489 138.675 186.489 139.225C186.489 139.825 186.089 140.8 185.289 142.15C184.539 143.5 183.639 145.05 182.589 146.8C181.539 148.55 180.614 150.4 179.814 152.35C179.064 154.25 178.689 156.075 178.689 157.825C178.689 159.625 178.989 160.825 179.589 161.425C180.189 162.025 181.114 162.325 182.364 162.325C184.064 162.325 185.864 161.475 187.764 159.775C189.714 158.075 191.764 155.1 193.914 150.85L194.589 151.6C193.139 155.9 191.039 159.2 188.289 161.5C185.589 163.8 182.764 164.95 179.814 164.95ZM198.88 166.45C194.43 166.45 192.205 163.975 192.205 159.025C192.205 156.825 192.605 154.125 193.405 150.925C194.255 147.675 195.305 144.35 196.555 140.95C196.055 140.85 195.58 140.775 195.13 140.725C194.68 140.625 194.255 140.5 193.855 140.35V139C194.255 139.05 194.73 139.1 195.28 139.15C195.83 139.2 196.455 139.25 197.155 139.3C198.205 136.6 199.33 134 200.53 131.5C201.73 128.95 202.905 126.7 204.055 124.75C205.255 122.75 206.38 121.175 207.43 120.025C208.53 118.825 209.455 118.225 210.205 118.225C210.605 118.225 210.955 118.375 211.255 118.675C211.605 118.925 211.78 119.325 211.78 119.875C211.78 120.725 211.255 122.125 210.205 124.075C209.155 125.975 207.855 128.25 206.305 130.9C204.755 133.55 203.255 136.425 201.805 139.525H204.58C206.23 139.525 207.955 139.5 209.755 139.45C211.605 139.4 213.455 139.275 215.305 139.075V140.425C209.855 141.025 205.455 141.325 202.105 141.325H200.98C199.83 143.975 198.855 146.7 198.055 149.5C197.255 152.3 196.855 155.025 196.855 157.675C196.855 159.825 197.18 161.375 197.83 162.325C198.48 163.225 199.555 163.675 201.055 163.675C203.655 163.675 206.205 162.525 208.705 160.225C211.205 157.925 213.405 154.8 215.305 150.85L216.28 151.6C215.08 154.4 213.555 156.925 211.705 159.175C209.905 161.425 207.905 163.2 205.705 164.5C203.505 165.8 201.23 166.45 198.88 166.45ZM217.492 166.525C215.942 166.525 214.642 166 213.592 164.95C212.492 163.95 211.942 162.4 211.942 160.3C211.942 158.5 212.342 156.575 213.142 154.525C213.942 152.425 215.042 150.375 216.442 148.375C217.842 146.325 219.417 144.475 221.167 142.825C222.967 141.125 224.842 139.775 226.792 138.775C228.792 137.775 230.767 137.275 232.717 137.275C234.667 137.275 236.292 137.8 237.592 138.85C238.892 139.85 239.542 141.2 239.542 142.9C239.542 144.15 239.192 145 238.492 145.45C237.842 145.9 236.967 146.125 235.867 146.125C236.117 145.225 236.242 144.35 236.242 143.5C236.242 142.35 235.967 141.375 235.417 140.575C234.867 139.725 233.917 139.3 232.567 139.3C231.167 139.3 229.742 139.8 228.292 140.8C226.842 141.75 225.442 143.05 224.092 144.7C222.742 146.3 221.542 148.05 220.492 149.95C219.442 151.85 218.617 153.725 218.017 155.575C217.417 157.425 217.117 159.075 217.117 160.525C217.117 162.475 217.792 163.45 219.142 163.45C220.292 163.45 221.542 162.925 222.892 161.875C224.242 160.775 225.617 159.4 227.017 157.75C228.467 156.05 229.842 154.3 231.142 152.5C232.442 150.7 233.592 149.05 234.592 147.55C234.792 147.25 234.917 147.1 234.967 147.1C235.417 147.15 236.017 147.35 236.767 147.7C237.517 148 237.892 148.425 237.892 148.975C237.892 149.425 237.667 150.05 237.217 150.85C236.767 151.6 236.267 152.475 235.717 153.475C235.167 154.475 234.667 155.5 234.217 156.55C233.767 157.55 233.542 158.5 233.542 159.4C233.542 160.15 233.742 160.9 234.142 161.65C234.542 162.35 235.192 162.7 236.092 162.7C237.442 162.7 239.217 161.725 241.417 159.775C243.617 157.775 245.842 154.8 248.092 150.85L248.842 151.6C247.792 154.3 246.442 156.675 244.792 158.725C243.142 160.775 241.367 162.375 239.467 163.525C237.617 164.675 235.792 165.25 233.992 165.25C232.142 165.25 230.767 164.7 229.867 163.6C229.017 162.5 228.592 161.3 228.592 160C228.592 159.35 228.667 158.625 228.817 157.825C226.667 160.725 224.692 162.9 222.892 164.35C221.142 165.8 219.342 166.525 217.492 166.525ZM259.533 164.95C257.833 164.95 256.483 164.5 255.483 163.6C254.533 162.7 254.058 161.525 254.058 160.075C254.058 158.575 254.408 157 255.108 155.35C255.808 153.7 256.483 152.075 257.133 150.475C257.833 148.825 258.183 147.35 258.183 146.05C258.183 144.45 257.708 143.275 256.758 142.525C255.858 141.725 254.933 141 253.983 140.35C252.833 143.3 251.633 146.1 250.383 148.75C249.133 151.4 248.108 153.4 247.308 154.75L246.633 153.475C247.333 152.175 248.233 150.275 249.333 147.775C250.483 145.275 251.608 142.425 252.708 139.225C252.208 138.725 251.958 138.125 251.958 137.425C251.958 135.925 252.383 134.7 253.233 133.75C254.083 132.8 254.708 132.325 255.108 132.325C255.658 132.325 255.958 132.575 256.008 133.075C256.108 133.525 256.158 133.875 256.158 134.125C256.158 134.375 256.008 134.875 255.708 135.625C255.458 136.325 255.333 136.75 255.333 136.9C255.333 137.6 255.708 138.25 256.458 138.85C257.258 139.4 258.158 140.05 259.158 140.8C260.158 141.5 261.033 142.375 261.783 143.425C262.583 144.425 262.983 145.725 262.983 147.325C262.983 148.825 262.658 150.35 262.008 151.9C261.408 153.45 260.783 154.925 260.133 156.325C259.533 157.725 259.233 158.95 259.233 160C259.233 160.9 259.458 161.5 259.908 161.8C260.358 162.1 260.883 162.25 261.483 162.25C262.683 162.25 263.908 161.875 265.158 161.125C266.458 160.375 267.708 159.425 268.908 158.275C270.108 157.125 271.183 155.925 272.133 154.675C273.083 153.375 273.783 152.175 274.233 151.075L275.208 151.825C274.258 153.925 272.958 156 271.308 158.05C269.658 160.05 267.808 161.7 265.758 163C263.758 164.3 261.683 164.95 259.533 164.95ZM307.339 169.525C304.639 169.525 302.089 169.025 299.689 168.025C297.289 167.075 295.339 165.6 293.839 163.6C292.389 161.6 291.664 159.1 291.664 156.1C291.664 153.5 292.164 151.475 293.164 150.025C294.214 148.575 295.489 147.55 296.989 146.95C298.489 146.35 299.914 146.05 301.264 146.05C299.914 147.5 298.889 149.1 298.189 150.85C297.489 152.6 297.139 154.35 297.139 156.1C297.139 157.95 297.539 159.675 298.339 161.275C299.189 162.875 300.464 164.15 302.164 165.1C303.864 166.1 306.014 166.6 308.614 166.6C310.864 166.6 313.064 166.175 315.214 165.325C317.364 164.525 319.114 163.325 320.464 161.725C321.864 160.075 322.564 158.05 322.564 155.65C322.564 153.5 322.014 151.65 320.914 150.1C319.814 148.55 318.389 147.175 316.639 145.975C314.939 144.775 313.114 143.625 311.164 142.525C309.214 141.425 307.364 140.275 305.614 139.075C303.914 137.825 302.514 136.4 301.414 134.8C300.314 133.2 299.764 131.275 299.764 129.025C299.764 126.925 300.264 124.725 301.264 122.425C302.264 120.125 303.689 117.95 305.539 115.9C307.439 113.85 309.689 112.2 312.289 110.95C314.939 109.65 317.889 109 321.139 109C324.089 109 326.139 109.725 327.289 111.175C328.439 112.575 329.014 114.35 329.014 116.5C329.014 118.3 328.689 120.25 328.039 122.35C327.439 124.4 326.689 126.375 325.789 128.275C324.889 130.125 324.039 131.7 323.239 133C322.339 132.8 321.689 132.425 321.289 131.875C320.939 131.275 320.764 130.575 320.764 129.775C320.764 128.725 320.989 127.525 321.439 126.175C321.889 124.825 322.389 123.425 322.939 121.975C323.539 120.525 324.064 119.125 324.514 117.775C324.964 116.375 325.189 115.125 325.189 114.025C325.189 113.025 324.889 112.25 324.289 111.7C323.689 111.1 322.589 110.8 320.989 110.8C318.639 110.8 316.464 111.35 314.464 112.45C312.464 113.55 310.714 114.975 309.214 116.725C307.714 118.425 306.539 120.225 305.689 122.125C304.889 124.025 304.489 125.75 304.489 127.3C304.489 129.15 305.014 130.75 306.064 132.1C307.164 133.4 308.564 134.6 310.264 135.7C311.964 136.75 313.764 137.825 315.664 138.925C317.614 139.975 319.439 141.15 321.139 142.45C322.839 143.75 324.214 145.3 325.264 147.1C326.364 148.85 326.914 151 326.914 153.55C326.914 156.15 326.339 158.45 325.189 160.45C324.039 162.4 322.489 164.05 320.539 165.4C318.639 166.75 316.539 167.775 314.239 168.475C311.939 169.175 309.639 169.525 307.339 169.525ZM335.849 165.85C334.899 165.85 334.149 165.05 333.599 163.45C333.049 161.85 332.774 160.05 332.774 158.05C332.774 155.65 333.174 152.8 333.974 149.5C334.774 146.2 335.824 142.725 337.124 139.075C338.424 135.425 339.874 131.85 341.474 128.35C343.124 124.85 344.799 121.675 346.499 118.825C348.199 115.975 349.799 113.7 351.299 112C352.799 110.3 354.099 109.45 355.199 109.45C356.099 109.45 356.724 110 357.074 111.1C357.474 112.15 357.674 113.175 357.674 114.175C357.674 115.575 357.349 117.275 356.699 119.275C356.099 121.275 355.249 123.425 354.149 125.725C353.049 127.975 351.774 130.2 350.324 132.4C348.874 134.6 347.299 136.625 345.599 138.475C343.899 140.275 342.174 141.7 340.424 142.75C339.824 144.2 339.299 145.825 338.849 147.625C338.449 149.425 338.149 151.2 337.949 152.95C337.749 154.65 337.649 156.175 337.649 157.525C337.649 158.075 337.649 158.55 337.649 158.95C337.699 159.35 337.749 159.725 337.799 160.075C338.999 156.625 340.349 153.425 341.849 150.475C343.349 147.525 345.024 145.15 346.874 143.35C348.774 141.55 350.824 140.65 353.024 140.65C355.074 140.65 356.524 141.375 357.374 142.825C358.274 144.225 358.724 145.75 358.724 147.4C358.724 148.95 358.449 150.45 357.899 151.9C357.399 153.35 356.874 154.75 356.324 156.1C355.774 157.45 355.499 158.75 355.499 160C355.499 161 355.699 161.725 356.099 162.175C356.549 162.625 357.099 162.85 357.749 162.85C358.899 162.85 360.174 162.3 361.574 161.2C363.024 160.1 364.449 158.65 365.849 156.85C367.249 155 368.449 153 369.449 150.85L370.424 151.75C369.374 154.2 368.099 156.425 366.599 158.425C365.099 160.375 363.449 161.925 361.649 163.075C359.849 164.225 357.974 164.8 356.024 164.8C354.324 164.8 353.024 164.35 352.124 163.45C351.274 162.55 350.849 161.425 350.849 160.075C350.849 159.025 351.049 157.85 351.449 156.55C351.849 155.25 352.224 153.925 352.574 152.575C352.974 151.225 353.174 149.95 353.174 148.75C353.174 147.45 352.899 146.525 352.349 145.975C351.799 145.425 351.124 145.15 350.324 145.15C349.074 145.15 347.949 145.65 346.949 146.65C345.949 147.65 345.024 148.95 344.174 150.55C343.374 152.1 342.599 153.75 341.849 155.5C341.149 157.25 340.474 158.925 339.824 160.525C339.174 162.075 338.524 163.35 337.874 164.35C337.224 165.35 336.549 165.85 335.849 165.85ZM341.399 139.825C342.799 138.725 344.149 137.325 345.449 135.625C346.799 133.925 348.049 132.125 349.199 130.225C350.349 128.275 351.374 126.375 352.274 124.525C353.174 122.675 353.874 121 354.374 119.5C354.874 118 355.124 116.875 355.124 116.125C355.124 115.725 355.024 115.525 354.824 115.525C354.474 115.525 353.749 116.225 352.649 117.625C351.599 118.975 350.374 120.8 348.974 123.1C347.574 125.4 346.199 128 344.849 130.9C343.499 133.8 342.349 136.775 341.399 139.825ZM373.168 165.4C371.018 165.4 369.493 164.725 368.593 163.375C367.693 162.075 367.243 160.475 367.243 158.575C367.243 157.025 367.493 155.425 367.993 153.775C368.493 152.125 369.143 150.575 369.943 149.125C370.793 147.675 371.718 146.5 372.718 145.6C373.768 144.7 374.818 144.25 375.868 144.25C376.318 144.25 376.843 144.375 377.443 144.625C376.993 145.025 376.443 145.775 375.793 146.875C375.193 147.925 374.618 149.15 374.068 150.55C373.518 151.9 373.043 153.25 372.643 154.6C372.293 155.95 372.118 157.1 372.118 158.05C372.118 159.55 372.368 160.65 372.868 161.35C373.368 162 374.018 162.325 374.818 162.325C375.868 162.325 377.118 161.775 378.568 160.675C380.018 159.525 381.443 158.075 382.843 156.325C381.443 155.175 380.343 153.675 379.543 151.825C378.793 149.925 378.418 148 378.418 146.05C378.418 144.4 378.693 142.85 379.243 141.4C379.843 139.95 380.693 138.8 381.793 137.95C382.893 137.05 384.218 136.6 385.768 136.6C387.818 136.6 389.193 137.15 389.893 138.25C390.593 139.35 390.943 140.725 390.943 142.375C390.943 144.325 390.468 146.5 389.518 148.9C388.568 151.25 387.368 153.525 385.918 155.725C386.818 156.225 387.768 156.475 388.768 156.475C389.918 156.475 391.318 156.1 392.968 155.35C394.618 154.55 395.893 153.125 396.793 151.075L397.693 151.825C396.693 154.175 395.268 155.85 393.418 156.85C391.618 157.8 389.893 158.275 388.243 158.275C386.893 158.275 385.693 158.025 384.643 157.525C382.943 159.775 381.068 161.65 379.018 163.15C377.018 164.65 375.068 165.4 373.168 165.4ZM384.193 154.375C385.443 152.525 386.468 150.6 387.268 148.6C388.118 146.55 388.543 144.625 388.543 142.825C388.543 141.375 388.318 140.325 387.868 139.675C387.468 138.975 386.943 138.625 386.293 138.625C385.293 138.625 384.268 139.35 383.218 140.8C382.168 142.25 381.643 144.075 381.643 146.275C381.643 147.725 381.843 149.2 382.243 150.7C382.693 152.15 383.343 153.375 384.193 154.375ZM390.661 184C390.261 184 389.886 183.775 389.536 183.325C389.136 182.925 388.836 182.475 388.636 181.975C388.436 181.525 388.336 181.25 388.336 181.15C389.036 178.7 389.736 176.5 390.436 174.55C391.086 172.65 391.761 170.675 392.461 168.625C393.111 166.625 393.761 164.275 394.411 161.575C395.061 158.825 395.736 155.425 396.436 151.375C397.136 147.325 397.836 142.3 398.536 136.3C398.586 135.85 398.686 135.525 398.836 135.325C398.986 135.125 399.361 135.025 399.961 135.025C401.261 135.025 402.186 135.4 402.736 136.15C403.286 136.85 403.561 137.625 403.561 138.475C403.561 139.175 403.411 140.425 403.111 142.225C402.811 144.025 402.386 146.15 401.836 148.6C402.686 146.95 403.736 145.275 404.986 143.575C406.286 141.875 407.761 140.45 409.411 139.3C411.061 138.15 412.861 137.575 414.811 137.575C417.011 137.575 418.811 138.375 420.211 139.975C421.661 141.525 422.386 143.575 422.386 146.125C422.386 148.075 421.936 150.15 421.036 152.35C420.186 154.5 418.961 156.55 417.361 158.5C415.811 160.4 413.961 161.95 411.811 163.15C409.661 164.35 407.286 164.95 404.686 164.95C403.386 164.95 402.336 164.8 401.536 164.5C400.736 164.2 400.336 163.9 400.336 163.6C400.336 163.4 400.511 163.275 400.861 163.225C401.261 163.225 401.711 163.225 402.211 163.225C404.211 163.225 406.111 162.75 407.911 161.8C409.761 160.8 411.411 159.5 412.861 157.9C414.311 156.3 415.436 154.525 416.236 152.575C417.086 150.625 417.511 148.7 417.511 146.8C417.511 145.2 417.161 143.85 416.461 142.75C415.811 141.6 414.736 141.025 413.236 141.025C411.936 141.025 410.636 141.45 409.336 142.3C408.086 143.1 406.886 144.15 405.736 145.45C404.636 146.7 403.636 148.025 402.736 149.425C401.886 150.775 401.236 152 400.786 153.1C399.886 156.85 398.986 160.45 398.086 163.9C397.186 167.4 396.311 170.55 395.461 173.35C394.661 176.2 393.936 178.525 393.286 180.325C392.586 182.125 392.011 183.225 391.561 183.625C391.311 183.875 391.011 184 390.661 184Z" fill="black"/>
<g clip-path="url(#clip1)">
<path d="M184.652 636.373C183.52 635.667 182.207 635.214 180.827 635.053C179.448 634.891 178.043 635.026 176.738 635.446L176.794 635.43L73.4084 667.427C71.7354 667.947 70.288 668.905 69.2639 670.168C68.2398 671.432 67.6891 672.941 67.687 674.487V778.812C62.4033 776.299 56.4785 774.983 50.4577 774.985H50.4484C41.7104 774.678 33.187 777.388 26.7333 782.526C20.2796 787.663 16.4182 794.812 15.9897 802.415V802.48C16.4014 810.106 20.264 817.279 26.7332 822.433C33.2024 827.586 41.7521 830.301 50.5137 829.983H50.4484C59.1863 830.29 67.7097 827.58 74.1634 822.443C80.6171 817.306 84.4785 810.157 84.907 802.553V697.814L171.054 671.627V744.533C165.767 742.027 159.844 740.714 153.824 740.714H153.815C145.077 740.405 136.554 743.115 130.101 748.253C123.648 753.39 119.789 760.54 119.366 768.144V768.209C119.775 775.835 123.637 783.01 130.107 788.164C136.576 793.318 145.128 796.032 153.89 795.712H153.824L154.804 795.728C162.338 795.728 169.655 793.538 175.595 789.505C181.535 785.471 185.758 779.827 187.592 773.466L187.639 773.263C188.056 772.387 188.274 771.449 188.283 770.5V642.499C188.284 641.303 187.956 640.124 187.326 639.061C186.696 637.997 185.782 637.081 184.662 636.389L184.634 636.373H184.652Z" fill="#8ECAE6"/>
</g>
<g clip-path="url(#clip2)">
<path d="M265.652 810.373C264.52 809.667 263.207 809.214 261.827 809.053C260.448 808.891 259.043 809.026 257.738 809.447L257.794 809.43L154.408 841.427C152.735 841.947 151.288 842.905 150.264 844.169C149.24 845.432 148.689 846.941 148.687 848.487V952.812C143.403 950.299 137.479 948.983 131.458 948.985H131.448C122.71 948.678 114.187 951.388 107.733 956.526C101.28 961.663 97.4182 968.812 96.9897 976.415V976.48C97.4014 984.106 101.264 991.279 107.733 996.433C114.202 1001.59 122.752 1004.3 131.514 1003.98H131.448C140.186 1004.29 148.71 1001.58 155.163 996.443C161.617 991.306 165.478 984.157 165.907 976.553V871.814L252.054 845.627V918.533C246.767 916.027 240.844 914.714 234.824 914.714H234.815C226.077 914.405 217.554 917.115 211.101 922.253C204.648 927.391 200.789 934.54 200.366 942.144V942.209C200.775 949.835 204.637 957.01 211.107 962.164C217.576 967.318 226.128 970.032 234.89 969.712H234.824L235.804 969.728C243.338 969.729 250.655 967.538 256.595 963.505C262.535 959.472 266.758 953.827 268.592 947.466L268.639 947.263C269.056 946.387 269.274 945.449 269.283 944.5V816.499C269.284 815.303 268.956 814.124 268.326 813.061C267.696 811.997 266.782 811.081 265.662 810.389L265.634 810.373H265.652Z" fill="#8ECAE6"/>
</g>
<g clip-path="url(#clip3)">
<path d="M380.652 599.373C379.52 598.667 378.207 598.214 376.827 598.053C375.448 597.891 374.043 598.026 372.738 598.446L372.794 598.43L269.408 630.427C267.735 630.947 266.288 631.905 265.264 633.168C264.24 634.432 263.689 635.941 263.687 637.487V741.812C258.403 739.299 252.479 737.983 246.458 737.985H246.448C237.71 737.678 229.187 740.388 222.733 745.526C216.28 750.663 212.418 757.812 211.99 765.415V765.48C212.401 773.106 216.264 780.279 222.733 785.433C229.202 790.586 237.752 793.301 246.514 792.983H246.448C255.186 793.29 263.71 790.58 270.163 785.443C276.617 780.306 280.478 773.157 280.907 765.553V660.814L367.054 634.627V707.533C361.767 705.027 355.844 703.714 349.824 703.714H349.815C341.077 703.405 332.554 706.115 326.101 711.253C319.648 716.39 315.789 723.54 315.366 731.144V731.209C315.775 738.835 319.637 746.01 326.107 751.164C332.576 756.318 341.128 759.032 349.89 758.712H349.824L350.804 758.728C358.338 758.728 365.655 756.538 371.595 752.505C377.535 748.471 381.758 742.827 383.592 736.466L383.639 736.263C384.056 735.387 384.274 734.449 384.283 733.5V605.499C384.284 604.303 383.956 603.124 383.326 602.061C382.696 600.997 381.782 600.081 380.662 599.389L380.634 599.373H380.652Z" fill="#8ECAE6"/>
</g>
<defs>
<clipPath id="clip0">
<rect width="824" height="968" fill="white" transform="translate(600 450.44) rotate(-40.1621)"/>
</clipPath>
<clipPath id="clip1">
<rect width="168" height="195" fill="white" transform="translate(16 635)"/>
</clipPath>
<clipPath id="clip2">
<rect width="168" height="195" fill="white" transform="translate(97 809)"/>
</clipPath>
<clipPath id="clip3">
<rect width="168" height="195" fill="white" transform="translate(212 598)"/>
</clipPath>
</defs>
</svg>
