<svg
  width="48"
  height="48"
  viewBox="0 0 48 48"
  fill="none"
  xmlns="http://www.w3.org/2000/svg"
>
<path
    fill-rule="evenodd"
    clip-rule="evenodd"
    d="M20 3.99996C20.0004 3.58285 19.8704 3.17607 19.6281 2.83654C19.3859 2.497 19.0435 2.2417 18.649 2.10637C18.2544 1.97104 17.8275 1.96244 17.4278 2.08179C17.0281 2.20113 16.6758 2.44245 16.42 2.77196L2.42005 20.772C2.14694 21.123 1.99866 21.5552 1.99866 22C1.99866 22.4448 2.14694 22.8769 2.42005 23.228L16.42 41.228C16.6758 41.5575 17.0281 41.7988 17.4278 41.9181C17.8275 42.0375 18.2544 42.0289 18.649 41.8935C19.0435 41.7582 19.3859 41.5029 19.6281 41.1634C19.8704 40.8238 20.0004 40.4171 20 40V32.02C30.758 32.244 35.926 34.286 38.522 36.506C40.99 38.616 41.442 41.098 41.912 43.698L42.034 44.368C42.1238 44.8474 42.3856 45.2775 42.7703 45.5773C43.155 45.8772 43.636 46.0261 44.1228 45.9962C44.6097 45.9662 45.0687 45.7593 45.4137 45.4145C45.7587 45.0697 45.9658 44.6108 45.996 44.124C46.338 38.628 45.824 30.664 41.942 24.002C38.174 17.536 31.388 12.564 20 12.044V3.99996Z"
    fill="black"
  />
</svg>
