<svg
  width="265"
  height="322"
  viewBox="0 0 265 322"
  fill="none"
  xmlns="http://www.w3.org/2000/svg"
>
<path
    d="M4.55505 196.722L9.10974 0L120.078 12.5781L112.625 202.256L4.55505 196.722Z"
    fill="#ED4C5C"
  />
<path
    d="M118.007 90.5625L118.835 65.4062L79.0852 61.3812L81.1555 5.53438L55.0696 2.51562L53.4133 45.2812L52.9993 58.8656L5.79614 54.3375L5.38208 83.0156L52.5852 86.5375L49.6868 201.753L75.3587 203.263L78.2571 88.0469L118.007 90.5625Z"
    fill="#FCBE10"
  />
<path
    d="M43.8906 66.9159C43.8906 66.9159 42.2344 98.6128 22.7734 116.725L39.75 118.738L37.6797 143.894C37.6797 143.894 57.5547 115.719 60.8672 68.9284L43.8906 66.9159Z"
    fill="#FFCE31"
  />
<path
    d="M87.3667 71.9476C87.3667 71.9476 84.0542 103.644 100.617 125.782L83.6401 123.769L81.5698 148.926C81.5698 148.926 66.2495 116.726 69.9761 69.9351L87.3667 71.9476Z"
    fill="#FFCE31"
  />
<path
    d="M63.7656 70.9405C63.3515 78.9905 55.0703 86.0342 45.9609 86.5374L38.5078 87.0405C29.3984 87.5436 23.6015 83.5186 25.6718 77.4811C27.7421 71.4436 28.5703 62.3874 27.3281 56.3499C26.0859 50.3124 32.2968 47.2936 41.4062 49.8092L48.4453 51.8217C57.5546 54.3374 64.1796 62.8905 63.7656 70.9405Z"
    fill="#FFE62E"
  />
<path
    d="M28.1555 78.4877C27.3274 78.9908 28.1555 79.9971 28.1555 80.5002C28.9837 81.5065 31.054 83.0158 34.7805 83.519H38.5071L45.9602 83.0158C50.929 82.5127 55.8977 79.9971 58.7961 76.4752C58.7961 76.9783 37.2649 69.4315 28.1555 78.4877Z"
    fill="#FFCE31"
  />
<path
    d="M67.0791 70.9404C66.665 78.9904 73.29 87.5435 81.9853 90.0591L89.0244 92.0716C97.7197 94.5873 104.345 91.5685 103.103 85.531C101.86 79.4935 102.688 69.9341 104.759 64.3998C106.829 58.8654 101.032 54.3373 91.9228 54.8404L84.4697 55.3435C75.7744 56.3498 67.9072 62.8904 67.0791 70.9404Z"
    fill="#FFE62E"
  />
<path
    d="M101.032 86.5368C101.86 87.5431 100.618 88.0462 100.618 88.5493C99.7898 89.5556 97.3054 90.5618 93.5789 90.0587C92.3367 90.0587 91.0945 89.5556 89.8523 89.5556L82.8132 87.5431C77.8445 86.0337 73.7039 82.5118 71.2195 78.4868C71.2195 77.9837 93.5789 75.9712 101.032 86.5368Z"
    fill="#FFCE31"
  />
<path
    d="M64.5936 68.4249C64.5936 68.4249 62.1093 70.4374 57.5546 64.3999C52.1718 57.3561 42.2343 64.903 53.828 69.9342C60.039 72.4498 64.5936 68.4249 64.5936 68.4249Z"
    fill="#FFCE31"
  />
<path
    d="M66.6644 68.9283C66.6644 68.9283 68.7347 71.4439 74.5316 66.4127C81.1566 60.8783 89.4379 69.9345 77.43 72.4502C70.8051 73.4564 66.6644 68.9283 66.6644 68.9283Z"
    fill="#FFCE31"
  />
<path
    d="M64.593 82.009C59.6243 81.5059 58.3821 85.5309 59.2102 70.4372C60.4524 55.3434 61.2805 59.8715 66.2493 60.3747C71.218 60.8778 72.4602 56.8528 71.6321 71.9465C70.8039 87.0403 69.5618 82.5121 64.593 82.009Z"
    fill="#FFCE31"
  />
<path
    d="M64.5936 82.0092C60.8671 81.5061 59.2108 86.0343 60.453 70.4374C61.6952 54.8405 62.1092 59.3686 66.2499 59.8717C69.9764 60.3749 71.6327 55.8467 70.3905 71.4436C69.1483 87.0405 68.7342 82.5124 64.5936 82.0092Z"
    fill="#FFE62E"
  />
<path
    d="M160.656 61.8844L180.531 0L255.476 28.175L243.882 78.4875L160.656 61.8844Z"
    fill="#C28FEF"
  />
<path
    d="M188.398 67.4192L214.484 72.4504L228.977 17.6098L204.133 8.05042L188.398 67.4192Z"
    fill="#FFE62E"
  />
<path d="M134.156 56.3497V154.459L265 152.95V56.3497H134.156Z" fill="#42ADE2" />
<path
    d="M134.157 56.3497L112.211 66.9154V154.459H134.157V56.3497Z"
    fill="#0071BC"
  />
<path d="M66.25 322L33.125 301.875V130.812H66.25V322Z" fill="#3E4347" />
<path d="M33.125 301.875L0 322V130.812H33.125V301.875Z" fill="#62727A" />
<path d="M66.25 130.812H265V322H66.25V130.812Z" fill="#62727A" />
<path
    d="M132.5 191.188C139.36 191.188 144.922 184.43 144.922 176.094C144.922 167.758 139.36 161 132.5 161C125.64 161 120.078 167.758 120.078 176.094C120.078 184.43 125.64 191.188 132.5 191.188Z"
    fill="#3E4347"
  />
<path
    d="M215.312 191.188C222.173 191.188 227.734 184.43 227.734 176.094C227.734 167.758 222.173 161 215.312 161C208.452 161 202.891 167.758 202.891 176.094C202.891 184.43 208.452 191.188 215.312 191.188Z"
    fill="#3E4347"
  />
<path
    d="M128.359 176.093V228.921C128.359 262.631 144.508 290.303 173.906 291.812C189.227 292.315 202.891 281.75 212 267.159C218.625 256.09 219.453 242.506 219.453 228.921V176.093C219.453 169.553 211.172 169.553 211.172 176.093V239.99C210.344 264.14 192.539 281.246 173.906 281.75C155.688 282.253 141.195 265.65 137.469 245.021C135.813 236.468 136.641 226.406 136.641 217.853V176.093C136.641 169.553 128.359 169.553 128.359 176.093Z"
    fill="#D0D0D0"
  />
</svg>
