<svg
  width="48"
  height="48"
  viewBox="0 0 48 48"
  fill="none"
  xmlns="http://www.w3.org/2000/svg"
>
<path
    d="M47.9759 16.1415L45.963 27.6893C45.7148 28.9649 44.6984 29.7406 43.5263 29.7551H14.18L13.5974 33.0394H41.5664C43.0391 33.1513 44.0381 34.1946 44.0561 35.529C43.949 36.9987 42.9058 38.0004 41.5664 38.0187H10.6309C8.95784 37.8682 7.9602 36.5345 8.14124 35.0523L9.46552 27.8481L7.4526 7.61291L1.73168 5.81199C0.333636 5.25691 -0.236964 3.99219 0.0895558 2.68667C0.632476 1.32607 1.9334 0.704426 3.21488 1.04455L10.525 3.37531C11.5098 3.74447 12.0763 4.55059 12.22 5.49419L12.6438 9.52003L45.804 13.228C47.3276 13.5581 48.1548 14.7649 47.9759 16.1415ZM18.2109 43.2462C18.2109 45.3453 16.5093 47.0469 14.4102 47.0469C12.3111 47.0469 10.6095 45.3453 10.6095 43.2462C10.6095 41.1471 12.3111 39.4455 14.4102 39.4455C16.5092 39.4455 18.2109 41.1472 18.2109 43.2462ZM40.901 43.2462C40.901 45.3453 39.1993 47.0469 37.1002 47.0469C35.0011 47.0469 33.2995 45.3453 33.2995 43.2462C33.2995 41.1471 35.0011 39.4455 37.1002 39.4455C39.1993 39.4455 40.901 41.1472 40.901 43.2462Z"
    fill="#023047"
  />
</svg>
